<svg width="23" height="23" viewBox="0 0 23 23" fill="none" xmlns="http://www.w3.org/2000/svg">
<path d="M11.0567 20.1421C6.04871 20.1421 1.97144 16.0648 1.97144 11.0568C1.97144 6.04889 6.04871 1.97162 11.0567 1.97162C16.0646 1.97162 20.1419 6.04889 20.1419 11.0568C20.1419 16.0648 16.0646 20.1421 11.0567 20.1421ZM11.0567 3.30116C6.77553 3.30116 3.30098 6.78457 3.30098 11.0568C3.30098 15.3291 6.77553 18.8125 11.0567 18.8125C15.3378 18.8125 18.8123 15.3291 18.8123 11.0568C18.8123 6.78457 15.3378 3.30116 11.0567 3.30116Z" fill="white"/>
<path d="M20.3635 21.0284C20.1951 21.0284 20.0267 20.9664 19.8937 20.8334L18.121 19.0607C17.864 18.8036 17.864 18.3782 18.121 18.1211C18.3781 17.8641 18.8035 17.8641 19.0606 18.1211L20.8333 19.8939C21.0903 20.1509 21.0903 20.5764 20.8333 20.8334C20.7003 20.9664 20.5319 21.0284 20.3635 21.0284Z" fill="white"/>
</svg>
