<svg width="239" height="63" viewBox="0 0 239 63" fill="none" xmlns="http://www.w3.org/2000/svg">
<path d="M52.9 62.1H9.2C4.1 62.1 0 58 0 52.9V9.20001C0 4.10001 4.1 0 9.2 0H52.9C58 0 62.1 4.10001 62.1 9.20001V52.9C62.1 58 57.9 62.1 52.9 62.1Z" fill="white"/>
<path d="M30.6 20.1001C30.6 20.1001 36.7 16.4001 40.4 14.3001C44.1 12.2001 46.2 11.5001 48.3 11.3001C50.4 11.2001 52.8 12.3001 52.8 12.3001L46.1 8.10007C46.1 8.10007 45.2 7.50006 42.7 7.80006C40.2 8.10006 38.9 8.80007 37.3 9.60007C35.7 10.5001 25 16.8001 25 16.8001L30.6 20.1001Z" fill="#231815"/>
<path d="M46.5997 17.3005C46.5997 17.3005 49.6997 21.6005 47.2997 29.2005C44.8997 36.8005 39.2997 41.1005 38.8997 41.4005C38.5997 41.7005 35.0997 43.7005 35.0997 43.7005L35.1997 49.7005C35.1997 49.7005 46.3997 45.8005 51.0997 35.0005C55.2997 25.5005 52.5997 20.4005 50.4997 18.2005C49.2997 16.9005 46.5997 17.3005 46.5997 17.3005Z" fill="#231815"/>
<path d="M30.6001 49.5997L25.0001 46.2997V16.8997L30.6001 20.0997V49.5997Z" fill="#231815"/>
<path d="M13.5 41L7.89999 37.6001V8.30005L13.4 11.4001L13.5 41Z" fill="#231815"/>
<path d="M7.9 37.6001C7.9 37.6001 6.50001 50.0001 16.6 54.5001C22.4 57.1001 26.7 55.6001 28.7 53.6001C30.3 52.0001 30.5 49.6001 30.5 49.6001L24.9 46.2001C24.9 46.2001 24.9 47.4001 24 48.3001C23 49.4001 21.4 50.5001 17.8 48.7001C13.2 46.3001 13.4 41.0001 13.4 41.0001L7.9 37.6001Z" fill="#231815"/>
<path d="M13.4 11.4001L17.9 9.10005L12.8 6.30005L7.89999 8.30005L13.4 11.4001Z" fill="#231815"/>
<path d="M233.4 47.9004H235.6V48.4004H234.7V50.7004H234.2V48.4004H233.3L233.4 47.9004Z" fill="white"/>
<path d="M236 47.9004H236.6L237.5 49.7004L238.4 47.9004H239V50.7004H238.5V48.7004L237.6 50.4004H237.3L236.4 48.7004V50.7004H236V47.9004Z" fill="white"/>
<path d="M230.4 48.1001C230.4 49.1001 230.4 49.9001 230.4 50.9001C226.3 50.9001 222.2 50.9001 218.2 50.9001C215.2 50.9001 215.2 50.9001 215.2 53.8001C215.2 58.1001 215.2 58.1001 219.4 58.1001C221.6 58.1001 223.8 58.0001 225.9 58.1001C227.5 58.2001 228 57.6001 227.8 56.1001C227.7 55.2001 227.8 54.2001 227.8 53.1001C228.8 53.1001 229.7 53.1001 230.9 53.1001C230.9 54.8001 231 56.4001 230.9 58.1001C230.8 59.8001 229.7 60.8001 228.1 60.9001C223.7 61.0001 219.4 61.0001 215 60.9001C213 60.9001 212 59.6001 212 57.6001C212 55.6001 212 53.5001 212 51.5001C212 49.3001 213 48.2001 215.1 48.1001C220.2 48.0001 225.2 48.1001 230.4 48.1001Z" fill="white"/>
<path d="M75.4001 26.9004H78.5001V36.5004C78.5001 36.7004 78.7001 36.9004 78.9001 36.9004H91.0001C91.2001 36.9004 91.4001 36.7004 91.4001 36.5004V26.9004H94.6001C94.6001 30.4004 94.7001 33.8004 94.6001 37.2004C94.6001 38.8004 93.5001 39.8004 92.0001 39.8004C87.2001 39.9004 82.9001 39.9004 78.0001 39.8004C76.4001 39.8004 75.4001 38.7004 75.4001 37.0004C75.3001 33.7004 75.4001 30.3004 75.4001 26.9004Z" fill="white"/>
<path d="M145.2 48.1003H148.3V57.5003C148.3 57.7003 148.5 57.9003 148.7 57.9003H162.7V60.8004C162.7 60.8004 148.9 60.8004 148.8 60.8004C146 60.8004 145.1 59.7003 145.1 57.2003C145.2 54.5003 145.2 51.1003 145.2 48.1003Z" fill="white"/>
<path d="M185.5 48.2004C186.5 48.2004 187.3 48.2004 188.4 48.2004C188.4 52.4004 188.4 56.6004 188.4 60.9004C187.5 60.9004 186.6 60.9004 185.5 60.9004C185.5 56.6004 185.5 52.5004 185.5 48.2004Z" fill="white"/>
<path d="M138.5 33.1004C138.5 33.1004 139 32.3004 139 31.9004C139.6 29.5004 138.7 27.0004 136.3 26.9004C130.9 26.7004 125.5 26.8004 119.9 26.8004C119.9 31.1004 119.9 35.3004 119.9 39.7004C125 39.7004 130 39.7004 135 39.7004C138.9 39.7004 139.5 36.8004 138.9 34.1004C138.9 33.8004 138.5 33.1004 138.5 33.1004ZM135.2 36.8004L123.3 36.9004V34.5004C123.3 34.5004 133 34.5004 135.2 34.5004C135.4 34.5004 135.6 34.7004 135.6 34.9004V36.4004C135.6 36.6004 135.4 36.8004 135.2 36.8004ZM135.2 32.1004L123.3 32.2004V29.8004C123.3 29.8004 133 29.8004 135.2 29.8004C135.4 29.8004 135.6 30.0004 135.6 30.2004V31.7004C135.6 31.9004 135.4 32.1004 135.2 32.1004Z" fill="white"/>
<path d="M155.9 29.3004C154.9 27.3004 153.4 26.9004 151.4 26.9004C149.3 26.9004 147.9 27.3004 146.9 29.3004C146.9 29.3004 143.1 36.1004 140.9 39.8004H144.8L150.2 30.0004C150.3 29.9004 150.4 29.8004 150.6 29.8004H152.4C152.5 29.8004 152.7 29.9004 152.8 30.0004L158.2 39.8004C158.2 39.8004 161.1 39.8004 162.1 39.8004C159.7 36.1004 155.8 29.3004 155.9 29.3004Z" fill="white"/>
<path d="M182.5 26.9008H179.2C179.2 30.1008 179.2 33.3008 179.2 36.9008C179.2 36.9008 178.7 37.0008 178 36.4008C176.3 34.8008 172.5 30.2008 172 29.7008C172 29.7008 172 29.6008 171.9 29.6008C171.6 29.2008 171.3 28.9008 171.2 28.8008C170 27.6008 169.3 27.0008 167.1 26.8008H164.2C164.2 30.7008 164.2 35.8008 164.2 39.7008H167.5C167.5 36.5008 167.5 33.3008 167.5 29.7008C167.5 29.7008 168 29.6008 168.7 30.2008C170.4 31.8008 174.2 36.4008 174.7 36.9008C174.7 36.9008 174.7 37.0008 174.8 37.0008C175.1 37.4008 175.4 37.7008 175.5 37.8008C176.7 39.0008 177.4 39.6008 179.6 39.8008H182.5C182.5 35.9008 182.5 30.8008 182.5 26.9008Z" fill="white"/>
<path d="M94.5001 50.6004C94.5001 49.1004 93.4001 48.2004 91.7001 48.2004C89.9001 48.2004 88.0001 48.2004 86.2001 48.2004C82.5001 48.2004 78.8001 48.2004 75.1001 48.2004C75.1001 52.5004 75.1001 56.6004 75.1001 60.9004C78.7001 60.9004 82.1001 60.9004 85.5001 60.9004C87.6001 60.9004 89.7001 60.9004 91.7001 60.9004C93.3001 60.9004 94.4001 59.9004 94.5001 58.5004C94.5001 57.9004 94.5001 51.2004 94.5001 50.6004ZM91.4001 52.3004V56.8004V57.7004C91.4001 57.9004 91.2001 58.1004 91.0001 58.1004H78.6001C78.4001 58.1004 78.2001 57.9004 78.2001 57.7004V51.5004C78.2001 51.3004 78.4001 51.1004 78.6001 51.1004H91.2001C91.4001 51.1004 91.4001 51.3004 91.4001 51.5004V52.3004Z" fill="white"/>
<path d="M209.4 48.1H206.1C206.1 51.3 206.1 54.5 206.1 58.1C206.1 58.1 205.6 58.2 204.9 57.6C203.2 56 199.4 51.4 198.9 50.9C198.9 50.9 198.9 50.9 198.8 50.8C198.5 50.4 198.2 50.1 198.1 50C196.9 48.8 196.2 48.2 194 48H191.1C191.1 51.9 191.1 57 191.1 60.9H194.4C194.4 57.7 194.4 54.5 194.4 50.9C194.4 50.9 194.9 50.8 195.6 51.4C197.3 53 201.1 57.6 201.6 58.1C201.6 58.1 201.6 58.1 201.7 58.2C202 58.6 202.3 58.9 202.4 59C203.6 60.2 204.3 60.8 206.5 61H209.4C209.4 57.1 209.4 52 209.4 48.1Z" fill="white"/>
<path d="M119 48.1003C118.5 50.8003 117.7 54.3003 117.1 57.0003C117 57.6003 116.8 58.0003 116.3 58.0003C115.7 58.0003 115.7 57.6003 115.4 57.0003C115.4 57.0003 113.4 51.7003 112.4 49.4003C112 48.5003 111.4 48.1003 110.5 48.1003C110.1 48.1003 109.7 48.1003 109.4 48.1003H109.3H109.2C108.9 48.1003 108.5 48.1003 108.1 48.1003C107.2 48.1003 106.6 48.5003 106.2 49.4003C105.2 51.7003 103.2 57.0003 103.2 57.0003C103 57.6003 102.9 58.0003 102.3 58.0003C101.8 58.0003 101.6 57.6003 101.5 57.0003C100.9 54.2003 100.2 50.8003 99.6001 48.1003C98.4001 48.1003 97.4001 48.1003 96.2001 48.1003C97.0001 51.6003 97.8001 54.9003 98.5001 58.1003C98.8001 59.5003 99.2001 60.9004 101 60.8004C101.8 60.8004 102.9 60.8004 103.7 60.8004C104.7 60.8004 105.2 60.1003 105.7 58.7003L108.6 51.0003C108.9 50.2003 109 50.1003 109.2 50.1003C109.4 50.1003 109.6 50.2003 109.8 51.0003L112.7 58.7003C113.2 60.1003 113.7 60.8004 114.7 60.8004C115.5 60.8004 116.5 60.8004 117.4 60.8004C119.2 60.8004 119.6 59.5003 119.9 58.1003C120.6 54.9003 121.4 51.5003 122.2 48.1003C121.2 48.1003 120.2 48.1003 119 48.1003Z" fill="white"/>
<path d="M141.4 53.4008H127.1C126.8 53.4008 126.6 53.2008 126.6 53.0008V51.5008C126.6 51.3008 126.8 51.1008 127.1 51.1008C129.5 51.1008 138.8 51.1008 141.4 51.1008H142.1C142.1 50.1008 142.1 49.2008 142.1 48.2008C136.6 48.2008 131.2 48.1008 125.7 48.3008C123.4 48.4008 122.8 50.5008 122.8 53.1008C122.8 53.5008 122.8 55.2008 122.8 55.6008C122.8 58.3008 123 61.1008 126.9 61.1008C131.9 61.1008 136.9 61.1008 142 61.1008C142 60.1008 142 59.1008 142 58.2008H127C126.7 58.2008 126.5 58.0008 126.5 57.8008V56.1008C126.5 55.9008 126.7 55.7008 127 55.7008C129.7 55.7008 142 55.7008 142 55.7008C142 54.9008 142 54.1008 142 53.4008H141.4Z" fill="white"/>
<path d="M165 48.1003H168.1V57.5003C168.1 57.7003 168.3 57.9003 168.5 57.9003H182.5V60.8004C182.5 60.8004 168.7 60.8004 168.6 60.8004C165.8 60.8004 164.9 59.7003 164.9 57.2003C165 54.5003 165 51.1003 165 48.1003Z" fill="white"/>
<path d="M111.6 34.8H113.1C115.8 34.7 116.1 33.3 116.1 30.9C116.1 28.7 115.5 27.1 113 27H99.9004H96.9004V39.9H99.9004V34.9H107.2L112.6 39.9H116.8C116.8 39.8 111.6 34.8 111.6 34.8ZM100 32.1V29.7C100.8 29.7 109.9 29.7 112 29.7C112.2 29.7 112.4 29.9 112.4 30.1V31.6C112.4 31.8 112.2 32 112 32L100 32.1Z" fill="white"/>
</svg>
