<svg width="22" height="23" viewBox="0 0 22 23" fill="none" xmlns="http://www.w3.org/2000/svg">
<path d="M10.1931 20.1421C5.18518 20.1421 1.10791 16.0648 1.10791 11.0568C1.10791 6.04889 5.18518 1.97162 10.1931 1.97162C15.2011 1.97162 19.2784 6.04889 19.2784 11.0568C19.2784 16.0648 15.2011 20.1421 10.1931 20.1421ZM10.1931 3.30116C5.912 3.30116 2.43746 6.78457 2.43746 11.0568C2.43746 15.3291 5.912 18.8125 10.1931 18.8125C14.4743 18.8125 17.9488 15.3291 17.9488 11.0568C17.9488 6.78457 14.4743 3.30116 10.1931 3.30116Z" fill="#231815"/>
<path d="M19.5 21.0284C19.3316 21.0284 19.1632 20.9664 19.0302 20.8334L17.2575 19.0607C17.0004 18.8036 17.0004 18.3782 17.2575 18.1211C17.5145 17.8641 17.94 17.8641 18.197 18.1211L19.9698 19.8939C20.2268 20.1509 20.2268 20.5764 19.9698 20.8334C19.8368 20.9664 19.6684 21.0284 19.5 21.0284Z" fill="#231815"/>
</svg>
