<svg width="215" height="31" viewBox="0 0 215 31" fill="none" xmlns="http://www.w3.org/2000/svg">
<g clip-path="url(#clip0_989_357)">
<path d="M25.4204 22.9839H21.3268V15.3628H21.0556C20.2944 17.9037 19.5335 20.4417 18.7714 22.9856H15.6666C14.9065 20.4481 14.1444 17.9042 13.3807 15.3552H13.1189C13.1046 15.9895 13.1144 16.6204 13.1123 17.2512C13.1107 17.8851 13.1123 18.519 13.1123 19.1528C13.1123 19.7867 13.1123 20.4205 13.1123 21.0544C13.1123 21.6878 13.1123 22.3213 13.1123 22.9492C12.9596 23.0072 9.24954 23.0208 9 22.9661V10.0254C9.08822 10.0195 9.17317 10.0093 9.25812 10.0089C10.5242 10.0081 11.7903 10.0081 13.056 10.0081C13.2324 10.0081 13.4093 10.0026 13.5853 10.0089C14.3911 10.0386 14.9176 10.489 15.2284 11.2237C15.3697 11.5571 15.4636 11.913 15.562 12.2643C16.0472 13.9943 16.5263 15.7259 17.0082 17.4567C17.0266 17.5233 17.0515 17.5881 17.0756 17.6601H17.3656C17.3893 17.5843 17.4158 17.5067 17.4379 17.4279C17.9811 15.5031 18.5222 13.5773 19.0675 11.6533C19.1876 11.2292 19.3754 10.8419 19.6903 10.5305C20.0036 10.2208 20.3805 10.0564 20.8069 10.0216C21.0638 10.0004 21.3228 10.0093 21.5809 10.0089C22.7788 10.0081 23.9766 10.0085 25.1745 10.0085H25.4094C25.4572 10.1873 25.4653 22.7441 25.4204 22.9843V22.9839Z" fill="white"/>
<path d="M40.1151 22.9845H35.9431V15.3613H35.6111C35.5817 15.4231 35.5466 15.4905 35.5163 15.5604C34.6497 17.5569 33.7814 19.5529 32.9176 21.5507C32.5888 22.3108 32.0411 22.7892 31.2541 22.9688C31.1753 22.9866 31.0928 22.9947 31.0119 22.9947C29.8006 22.9964 28.5892 22.9959 27.3778 22.9951C27.3117 22.9951 27.2455 22.9879 27.165 22.9828V10.0519C27.3055 9.9989 30.9833 9.97772 31.3415 10.0307C31.3472 10.1197 31.3587 10.2141 31.3587 10.3091C31.3595 12.661 31.3595 15.013 31.3595 17.3649V17.6467H31.6646C31.6964 17.5823 31.7356 17.5094 31.7691 17.4344C32.6476 15.4511 33.5282 13.469 34.4014 11.4831C34.6525 10.9116 35.0091 10.4531 35.5699 10.1849C35.8137 10.068 36.0649 10.004 36.3381 10.0057C37.5155 10.012 38.6926 10.0082 39.8701 10.0082C39.9505 10.0082 40.0306 10.0082 40.1045 10.0082C40.1551 10.1883 40.1633 22.7472 40.1155 22.9849L40.1151 22.9845Z" fill="white"/>
<path d="M54.9072 15.3688C54.8222 15.3731 54.7487 15.3794 54.6752 15.3794C52.2055 15.379 49.7354 15.3845 47.2657 15.3709C46.745 15.368 46.2189 15.379 45.7047 15.2392C44.9194 15.026 44.2259 14.6358 43.6186 14.0854C42.7923 13.3372 42.1952 12.4258 41.853 11.3428C41.7219 10.9276 41.6296 10.503 41.6055 10.0331C41.6851 10.0298 41.7623 10.0238 41.8395 10.0238C43.6765 10.0217 45.5136 10.0204 47.3507 10.0187C48.3782 10.0179 49.4054 10.0187 50.433 10.0166C51.2294 10.0145 51.9891 10.1781 52.6915 10.5717C53.9458 11.2742 54.6838 12.3673 54.9391 13.8138C55.024 14.2956 55.0244 14.7786 54.937 15.2608C54.9321 15.2879 54.9223 15.3142 54.9072 15.3684V15.3688Z" fill="#808080"/>
<path d="M54.6293 16.203C54.5129 16.5627 54.3443 16.8746 54.136 17.1622C53.4408 18.1211 52.5039 18.6935 51.3918 18.9799C50.9801 19.0859 50.5615 19.1219 50.138 19.121C48.7771 19.1181 47.4163 19.1202 46.0554 19.1202C45.9754 19.1202 45.8949 19.1202 45.7936 19.1202V22.9483C45.6303 23.0068 42.0395 23.0191 41.7957 22.9665V16.225C41.8034 16.2153 41.8075 16.2093 41.8124 16.2047C41.8173 16.2 41.8226 16.1949 41.8287 16.1937C41.8553 16.1882 41.8818 16.1797 41.9084 16.1797C46.1204 16.1797 50.3324 16.1797 54.5444 16.1805C54.5636 16.1805 54.5828 16.1903 54.6302 16.203H54.6293Z" fill="white"/>
</g>
<g clip-path="url(#clip1_989_357)">
<path d="M132.998 23.7257V23.807H129.626C129.479 23.1234 129.336 22.4539 129.191 21.7804H124.507C124.253 22.4547 123.999 23.1302 123.746 23.7997H119.928C119.948 23.7479 119.963 23.7063 119.981 23.6656C121.405 20.3945 122.829 17.1234 124.253 13.8526C124.626 12.9977 124.997 12.1422 125.374 11.2889C125.522 10.9532 125.747 10.6749 126.082 10.4905C126.413 10.3086 126.777 10.2493 127.15 10.2472C128.088 10.2423 129.027 10.2447 129.965 10.245C129.996 10.245 130.028 10.2509 130.061 10.2542C130.375 11.7012 130.688 13.1422 131 14.5833C131.325 16.0774 131.649 17.5715 131.973 19.0658C132.268 20.4278 132.563 21.7901 132.859 23.1518C132.901 23.344 132.951 23.5343 132.998 23.7255L132.998 23.7257ZM125.564 18.999H128.589C128.226 17.3089 127.866 15.6277 127.501 13.9235C126.852 15.6231 126.212 17.3016 125.564 18.999Z" fill="white"/>
<path d="M118.03 10C118.162 10.0171 118.293 10.0376 118.426 10.0506C119.189 10.1243 119.929 10.2908 120.647 10.5506C120.665 10.5569 120.681 10.5663 120.716 10.5834C120.553 11.5493 120.389 12.5209 120.224 13.4961C119.963 13.3937 119.715 13.289 119.461 13.1986C118.548 12.8729 117.605 12.777 116.641 12.8748C116.232 12.9162 115.842 13.0261 115.507 13.2722C115.311 13.4159 115.169 13.5952 115.105 13.8269C115.023 14.1217 115.116 14.3794 115.33 14.5825C115.519 14.7611 115.727 14.9314 115.954 15.06C116.417 15.3226 116.896 15.56 117.373 15.798C118.055 16.1378 118.699 16.5271 119.232 17.0674C119.736 17.5785 120.069 18.1752 120.16 18.8783C120.261 19.6552 120.139 20.4065 119.806 21.1214C119.354 22.0887 118.591 22.7625 117.623 23.2382C116.938 23.5752 116.208 23.7845 115.448 23.8877C115.064 23.9399 114.675 23.9635 114.288 24C114.025 24 113.761 24.0003 113.497 24.0005C112.445 23.9564 111.409 23.8148 110.403 23.5097C110.194 23.4466 109.991 23.3684 109.781 23.2956C109.953 22.2712 110.122 21.2641 110.292 20.2476C110.537 20.3534 110.766 20.4541 110.997 20.5518C111.633 20.8212 112.288 21.0345 112.982 21.1122C113.644 21.1864 114.308 21.2354 114.969 21.1014C115.274 21.0397 115.564 20.9401 115.823 20.7703C116.197 20.525 116.413 20.1977 116.373 19.7448C116.354 19.5299 116.256 19.3488 116.114 19.1874C115.901 18.9473 115.638 18.7646 115.355 18.6135C114.913 18.378 114.461 18.1603 114.016 17.9299C113.336 17.5777 112.696 17.1733 112.172 16.6177C111.491 15.8949 111.208 15.0519 111.322 14.0795C111.464 12.8731 112.078 11.9386 113.075 11.2234C113.851 10.6668 114.733 10.3395 115.677 10.1665C116.026 10.1026 116.382 10.0728 116.734 10.0263C116.754 10.0236 116.772 10.0095 116.791 10.0008C117.204 10.0008 117.617 10 118.03 10Z" fill="white"/>
<path d="M88 10.4599C88.022 10.3922 88.0436 10.3245 88.0698 10.2441C88.1151 10.2441 88.166 10.2441 88.2167 10.2441C90.0882 10.2441 91.9597 10.2441 93.8309 10.2441C94.1092 10.2441 94.3836 10.2736 94.6481 10.3576C95.1634 10.5208 95.4595 10.8779 95.5692 11.3768C95.7088 12.0109 95.8335 12.6479 95.9638 13.2838C96.1467 14.1758 96.3285 15.0681 96.5114 15.9601C96.6083 16.4325 96.7065 16.9049 96.803 17.3773C96.8112 17.4169 96.8098 17.458 96.8129 17.4983C96.7946 17.4623 96.7735 17.4274 96.7583 17.3901C96.4901 16.73 96.1493 16.106 95.7429 15.5156C94.8699 14.247 93.7563 13.2118 92.4403 12.3747C92.2462 12.2513 92.041 12.1438 91.8409 12.029C91.6183 11.9066 91.3999 11.7759 91.1722 11.663C90.1996 11.1806 89.1786 10.8205 88.1227 10.5506C88.0836 10.5406 88.0411 10.5441 88 10.5411C88 10.514 88 10.487 88 10.4599Z" fill="#808080"/>
<path d="M91.8409 12.0291C92.041 12.1439 92.2461 12.2514 92.4403 12.3749C93.7565 13.2119 94.8701 14.2471 95.7428 15.5157C96.1492 16.1065 96.49 16.7302 96.7582 17.3902C96.7734 17.4276 96.7945 17.4625 96.8128 17.4985C96.9243 18.0139 97.0357 18.5297 97.1471 19.0451C97.1767 19.1816 97.2054 19.3183 97.2417 19.4891C98.4378 16.391 99.6226 13.3229 100.809 10.2502H104.661C104.592 10.417 104.525 10.5794 104.457 10.7411C102.639 15.0385 100.821 19.3361 99.0017 23.6333C98.9221 23.8212 98.9691 23.7892 98.7642 23.7895C97.5918 23.7908 96.4191 23.79 95.2467 23.79H95.082C95.0103 23.5339 94.9391 23.2832 94.8698 23.0323C93.9355 19.6431 93.0015 16.2543 92.0677 12.8651C91.9909 12.5866 91.9163 12.3077 91.8406 12.0289L91.8409 12.0291Z" fill="white"/>
<path d="M107.503 23.8004H103.857C104.617 19.2813 105.376 14.77 106.135 10.252H109.781C109.021 14.7681 108.262 19.2821 107.503 23.8004Z" fill="white"/>
</g>
<path d="M214.762 16.5C214.762 24.4564 208.293 31 200.262 31C192.306 31 185.762 24.4564 185.762 16.5C185.762 8.54359 192.231 2 200.188 2C208.293 2 214.762 8.54359 214.762 16.5Z" fill="#808080"/>
<path d="M195.354 16.5744C195.354 15.5333 195.206 14.4923 195.057 13.5256H186.134C186.208 13.0051 186.357 12.559 186.506 11.9641H194.462C194.313 11.4436 194.09 10.9231 193.867 10.4026H187.1C187.323 9.88205 187.621 9.4359 187.918 8.84103H193.049C192.752 8.32051 192.38 7.8 191.934 7.27949H189.108C189.554 6.75897 190 6.31282 190.595 5.79231C188.067 3.41282 184.647 2 180.854 2C172.972 2.22308 166.429 8.54359 166.429 16.5C166.429 24.4564 172.898 31 180.929 31C184.721 31 188.067 29.5128 190.67 27.2077C191.19 26.7615 191.636 26.241 192.157 25.6462H189.182C188.811 25.2 188.439 24.6795 188.141 24.159H193.198C193.495 23.7128 193.793 23.1923 194.016 22.5974H187.249C187.026 22.1513 186.803 21.6308 186.654 21.0359H194.611C195.057 19.6974 195.354 18.2103 195.354 16.5744Z" fill="#686868"/>
<path d="M186.062 20.2178L186.285 18.8794C186.21 18.8794 186.062 18.9537 185.913 18.9537C185.392 18.9537 185.318 18.6563 185.392 18.5076L185.839 15.8307H186.657L186.88 14.3435H186.136L186.285 13.4512H184.723C184.723 13.4512 183.831 18.5076 183.831 19.1025C183.831 19.9948 184.351 20.4409 185.095 20.4409C185.541 20.4409 185.913 20.2922 186.062 20.2178Z" fill="white"/>
<path d="M186.582 17.7642C186.582 19.9206 188.069 20.4411 189.259 20.4411C190.374 20.4411 190.895 20.218 190.895 20.218L191.192 18.7309C191.192 18.7309 190.374 19.1027 189.556 19.1027C187.846 19.1027 188.143 17.8386 188.143 17.8386H191.267C191.267 17.8386 191.49 16.8719 191.49 16.4257C191.49 15.4591 190.969 14.195 189.259 14.195C187.772 14.1206 186.582 15.8309 186.582 17.7642ZM189.259 15.5334C190.077 15.5334 189.928 16.5001 189.928 16.5745H188.218C188.292 16.5001 188.441 15.5334 189.259 15.5334Z" fill="white"/>
<path d="M198.998 20.218L199.296 18.5078C199.296 18.5078 198.552 18.8796 197.957 18.8796C196.916 18.8796 196.396 18.0616 196.396 17.0949C196.396 15.236 197.288 14.2693 198.403 14.2693C199.147 14.2693 199.816 14.7155 199.816 14.7155L200.039 13.0796C200.039 13.0796 199.147 12.7078 198.255 12.7078C196.47 12.7078 194.76 14.2693 194.76 17.1693C194.76 19.1026 195.652 20.3667 197.511 20.3667C198.18 20.4411 198.998 20.218 198.998 20.218Z" fill="white"/>
<path d="M177.658 14.1201C176.617 14.1201 175.799 14.4176 175.799 14.4176L175.576 15.756C175.576 15.756 176.245 15.4586 177.286 15.4586C177.806 15.4586 178.253 15.5329 178.253 15.9791C178.253 16.2765 178.178 16.3509 178.178 16.3509H177.509C176.171 16.3509 174.758 16.8714 174.758 18.656C174.758 20.0688 175.65 20.3663 176.245 20.3663C177.286 20.3663 177.806 19.697 177.881 19.697L177.806 20.2919H179.071L179.665 16.0535C179.665 14.1945 178.178 14.1201 177.658 14.1201ZM177.955 17.5406C177.955 17.7637 177.806 19.0278 176.914 19.0278C176.468 19.0278 176.319 18.656 176.319 18.4329C176.319 18.0611 176.542 17.5406 177.732 17.5406C177.881 17.5406 177.955 17.5406 177.955 17.5406Z" fill="white"/>
<path d="M181.153 20.3664C181.525 20.3664 183.458 20.4408 183.458 18.3587C183.458 16.4254 181.599 16.7972 181.599 16.0536C181.599 15.6818 181.896 15.5331 182.417 15.5331C182.64 15.5331 183.458 15.6074 183.458 15.6074L183.681 14.1946C183.681 14.1946 183.16 14.0459 182.194 14.0459C181.078 14.0459 179.889 14.4921 179.889 16.0536C179.889 17.8382 181.822 17.6895 181.822 18.3587C181.822 18.8049 181.302 18.8792 180.93 18.8792C180.26 18.8792 179.517 18.6562 179.517 18.6562L179.294 20.069C179.443 20.2177 179.889 20.3664 181.153 20.3664Z" fill="white"/>
<path d="M211.785 12.9307L211.488 15.0127C211.488 15.0127 210.893 14.2691 210.001 14.2691C208.588 14.2691 207.398 15.9794 207.398 17.9871C207.398 19.2512 207.993 20.5153 209.332 20.5153C210.224 20.5153 210.819 19.9204 210.819 19.9204L210.744 20.4409H212.306L213.421 13.0794L211.785 12.9307ZM211.042 16.946C211.042 17.764 210.67 18.8794 209.778 18.8794C209.257 18.8794 208.96 18.4332 208.96 17.6153C208.96 16.3512 209.48 15.6076 210.224 15.6076C210.744 15.6819 211.042 16.0537 211.042 16.946Z" fill="white"/>
<path d="M169.254 20.2922L170.146 14.7896L170.295 20.2922H171.336L173.343 14.7896L172.525 20.2922H174.161L175.425 12.9307H172.897L171.336 17.4666L171.261 12.9307H169.031L167.766 20.2922H169.254Z" fill="white"/>
<path d="M193.05 20.2926C193.496 17.7644 193.57 15.6824 194.686 16.0541C194.835 15.0875 195.058 14.6413 195.206 14.2695H194.909C194.24 14.2695 193.645 15.1618 193.645 15.1618L193.794 14.3439H192.306L191.34 20.2926H193.05Z" fill="white"/>
<path d="M202.569 14.1201C201.528 14.1201 200.71 14.4176 200.71 14.4176L200.487 15.756C200.487 15.756 201.156 15.4586 202.197 15.4586C202.718 15.4586 203.164 15.5329 203.164 15.9791C203.164 16.2765 203.089 16.3509 203.089 16.3509H202.42C201.082 16.3509 199.669 16.8714 199.669 18.656C199.669 20.0688 200.561 20.3663 201.156 20.3663C202.197 20.3663 202.718 19.697 202.792 19.697L202.718 20.2919H204.13L204.725 16.0535C204.725 14.1945 203.089 14.1201 202.569 14.1201ZM202.941 17.5406C202.941 17.7637 202.792 19.0278 201.9 19.0278C201.453 19.0278 201.305 18.656 201.305 18.4329C201.305 18.0611 201.528 17.5406 202.718 17.5406C202.866 17.5406 202.866 17.5406 202.941 17.5406Z" fill="white"/>
<path d="M205.915 20.2926C206.362 17.7644 206.436 15.6824 207.551 16.0541C207.7 15.0875 207.923 14.6413 208.072 14.2695H207.774C207.105 14.2695 206.51 15.1618 206.51 15.1618L206.659 14.3439H205.172L204.205 20.2926H205.915Z" fill="white"/>
<defs>
<clipPath id="clip0_989_357">
<rect width="46" height="13" fill="white" transform="translate(9 10)"/>
</clipPath>
<clipPath id="clip1_989_357">
<rect width="45" height="14" fill="white" transform="translate(88 10)"/>
</clipPath>
</defs>
</svg>
